<?xml version="1.0" encoding="UTF-8"?>
<svg id="Layer_1" data-name="Layer 1" xmlns="http://www.w3.org/2000/svg" viewBox="0 0 1080 1080">
  <defs>
    <style>
      .cls-1 {
        fill: #000;
        stroke-width: 0px;
      }
    </style>
  </defs>
  <g>
    <path class="cls-1" d="M448.35,582.01v-50.66h19.27c14.03,0,22.53,9.07,22.53,25.36s-8.36,25.29-22.39,25.29h-19.41ZM467.26,575.28c11.76,0,14.81-8.79,14.81-18.56s-3.05-18.63-14.81-18.63h-11.12v37.19h11.12Z"/>
    <path class="cls-1" d="M502.82,582.01v-50.66h21.11c11.19,0,17.22,5.24,17.22,14.59,0,6.45-3.9,11.12-9.49,12.4v.14c11.76,2.2,7.44,22.18,10.2,23.03v.5h-8.36c-2.27-2.12,2.55-19.84-9.85-19.84h-13.04v19.84h-7.79ZM522.23,555.44c7.16,0,11.05-3.12,11.05-8.93,0-5.46-3.12-8.43-10.91-8.43h-11.76v17.36h11.62Z"/>
    <path class="cls-1" d="M554.25,582.01v-50.66h35.85v6.73h-28.06v14.38h24.58v6.73h-24.58v16.08h28.76v6.73h-36.56Z"/>
    <path class="cls-1" d="M598.31,582.01l18.85-50.66h8.43l18.99,50.66h-8.5l-4.18-12.19h-21.18l-4.18,12.19h-8.22ZM613.05,563.23h16.65l-8.29-24.65h-.14l-8.22,24.65Z"/>
    <path class="cls-1" d="M654.77,582.01v-50.66h10.27l14.59,39.82h.14l14.67-39.82h10.27v50.66h-7.65v-39.32h-.14l-13.96,39.32h-6.45l-13.96-39.32h-.14v39.32h-7.65Z"/>
    <path class="cls-1" d="M732.13,582.01v-43.92h-16.37v-6.73h40.6v6.73h-16.37v43.92h-7.86Z"/>
    <path class="cls-1" d="M767.41,582.01v-50.66h35.85v6.73h-28.06v14.38h24.58v6.73h-24.58v16.08h28.76v6.73h-36.56Z"/>
    <path class="cls-1" d="M849.23,582.01l-17.15-24.37-8.08,8.57v15.8h-7.79v-50.66h7.79v25.65l24.02-25.65h8.71l-19.84,21.11,21.47,29.54h-9.14Z"/>
  </g>
  <g>
    <path class="cls-1" d="M341.65,594.16l-13.5,13.5c-3.44,3.44-2.74,9.23,1.45,11.68.03.01.05.03.08.05l13.54-23.45c-.49-.62-1.02-1.21-1.58-1.77Z"/>
    <path class="cls-1" d="M339.46,619.16c-1.46,5.44,2.6,10.86,8.23,10.88h.11v-21.02c0-3.83-1.03-7.42-2.82-10.51l-5.53,20.64Z"/>
    <path class="cls-1" d="M350.62,598.51l6.88,25.67c1.69,6.32,8.91,9.38,14.58,6.12.04-.02.07-.04.11-.06l-19.8-34.3c-.65.81-1.24,1.67-1.76,2.58Z"/>
    <path class="cls-1" d="M353.96,594.16l24.55,24.55c5.36,5.36,14.4,4.27,18.21-2.29.03-.05.05-.09.08-.13l-41.06-23.71c-.62.49-1.21,1.02-1.77,1.58Z"/>
    <path class="cls-1" d="M358.31,590.82l38.15,10.22c8.49,2.27,16.93-4.07,16.95-12.86v-.18h-44.59c-3.83,0-7.42,1.03-10.51,2.82Z"/>
    <path class="cls-1" d="M358.31,585.19l45.98-12.32c9.86-2.64,14.62-13.91,9.52-22.75-.03-.06-.06-.11-.1-.17l-57.99,33.48c.81.65,1.67,1.24,2.58,1.77Z"/>
    <path class="cls-1" d="M353.96,581.85l41.79-41.79c8.37-8.37,6.64-22.45-3.59-28.4-.07-.04-.13-.08-.2-.12l-39.57,68.54c.49.62,1.02,1.21,1.58,1.77Z"/>
    <path class="cls-1" d="M348.08,485.6h-.27v81.39c0,3.83,1.03,7.42,2.81,10.52l17.55-65.5c3.55-13.25-6.37-26.37-20.09-26.4Z"/>
    <path class="cls-1" d="M344.99,577.5l-20.81-77.68c-4.12-15.38-21.7-22.79-35.51-14.85-.09.05-.18.11-.26.16l54.82,94.96c.65-.81,1.24-1.68,1.76-2.58Z"/>
    <path class="cls-1" d="M341.65,581.85h0s-68.71-68.72-68.71-68.72c-13.06-13.06-35.01-10.31-44.3,5.65-.06.11-.12.21-.18.32l111.42,64.33c.62-.49,1.21-1.02,1.77-1.58Z"/>
    <path class="cls-1" d="M337.3,585.19l-91.78-24.6c-17.83-4.78-35.46,8.58-35.51,27.04v.37h116.78c3.83,0,7.42-1.03,10.51-2.81Z"/>
    <path class="cls-1" d="M337.3,590.83l-12.64,3.39c-4.04,1.08-6.03,5.72-3.94,9.34.02.03.03.05.04.07l19.12-11.04c-.81-.65-1.67-1.24-2.58-1.76Z"/>
    <polygon class="cls-1" points="347.8 588.01 347.81 588.01 347.8 588 347.8 588.01"/>
    <rect class="cls-1" x="347.81" y="588.01" width=".01" height="0"/>
  </g>
</svg>