<?xml version="1.0" encoding="UTF-8"?>
<svg id="Layer_1" data-name="Layer 1" xmlns="http://www.w3.org/2000/svg" viewBox="0 0 1080 1080">
  <defs>
    <style>
      .cls-1 {
        fill: #01203f;
        stroke-width: 0px;
      }
    </style>
  </defs>
  <path class="cls-1" d="M598.29,619.18l-32.12,32.12c-8.18,8.18-6.53,21.97,3.46,27.79.07.03.13.07.2.11l32.22-55.8c-1.17-1.48-2.43-2.89-3.76-4.22Z"/>
  <path class="cls-1" d="M593.08,678.64c-3.47,12.95,6.18,25.85,19.59,25.89h.27v-50c0-9.11-2.44-17.65-6.7-25l-13.16,49.11Z"/>
  <path class="cls-1" d="M619.64,629.52l16.36,61.07c4.03,15.03,21.21,22.32,34.69,14.56.09-.05.17-.1.26-.15l-47.12-81.61c-1.55,1.93-2.95,3.98-4.19,6.13Z"/>
  <path class="cls-1" d="M627.59,619.18l58.4,58.4c12.76,12.76,34.25,10.15,43.32-5.45.06-.11.12-.21.18-.31l-97.69-56.4c-1.48,1.17-2.88,2.42-4.21,3.76Z"/>
  <path class="cls-1" d="M637.93,611.23l90.76,24.32c20.21,5.41,40.28-9.68,40.34-30.6v-.42h-106.09c-9.11,0-17.65,2.44-25.01,6.7Z"/>
  <path class="cls-1" d="M637.93,597.84l109.4-29.32c23.45-6.28,34.78-33.1,22.66-54.12-.07-.14-.15-.27-.23-.41l-137.97,79.65c1.93,1.55,3.98,2.95,6.14,4.2Z"/>
  <path class="cls-1" d="M627.58,589.89l99.42-99.42c19.91-19.91,15.79-53.42-8.54-67.58-.16-.1-.32-.19-.48-.28l-94.15,163.07c1.17,1.48,2.42,2.88,3.75,4.21Z"/>
  <path class="cls-1" d="M613.59,360.89h-.65v193.64c0,9.12,2.44,17.66,6.69,25.02l41.76-155.84c8.45-31.53-15.15-62.73-47.8-62.82Z"/>
  <path class="cls-1" d="M606.24,579.53l-49.52-184.82c-9.8-36.59-51.64-54.23-84.48-35.34-.21.13-.42.25-.63.37l130.44,225.94c1.55-1.93,2.95-3.99,4.19-6.15Z"/>
  <path class="cls-1" d="M598.29,589.89h0s-163.48-163.49-163.48-163.49c-31.07-31.07-83.3-24.54-105.4,13.44-.14.25-.29.5-.43.75l265.1,153.05c1.48-1.17,2.88-2.42,4.21-3.75Z"/>
  <path class="cls-1" d="M587.94,597.84l-218.36-58.52c-42.43-11.37-84.36,20.41-84.48,64.33v.88h277.84c9.11,0,17.65-2.44,25-6.69Z"/>
  <path class="cls-1" d="M587.95,611.24l-30.08,8.06c-9.62,2.58-14.35,13.6-9.38,22.23.04.06.07.11.1.17l45.5-26.27c-1.93-1.55-3.98-2.95-6.14-4.19Z"/>
  <polygon class="cls-1" points="612.93 604.53 612.94 604.53 612.93 604.52 612.93 604.53"/>
  <polygon class="cls-1" points="612.94 604.53 612.94 604.54 612.97 604.54 612.96 604.53 612.94 604.53"/>
</svg>